<?xml version="1.0" encoding="utf-8"?>
<!-- Generator: Adobe Illustrator 21.0.2, SVG Export Plug-In . SVG Version: 6.00 Build 0)  -->
<svg version="1.1" id="Layer_1" xmlns="http://www.w3.org/2000/svg" xmlns:xlink="http://www.w3.org/1999/xlink" x="0px" y="0px"
	 viewBox="0 0 1000 500" style="enable-background:new 0 0 1000 500;" xml:space="preserve">
<style type="text/css">
	.st0{fill:#362F8B;}
</style>
<g>
	<path class="st0" d="M275.7,168.2v123.5h-8.3v-10.8c-7.7,8.2-18.1,12.9-30.8,12.9c-23.1,0-41.7-18.6-41.7-41.9s18.6-41.7,41.7-41.7
		c12.7,0,23.1,4.7,30.8,12.7v-54.6H275.7z M267.3,270.1v-36.5c-7.1-10.4-17.7-15.7-29.9-15.7c-19.1,0-33.9,15.1-33.9,33.9
		s14.8,34.1,33.9,34.1C249.6,285.9,260.2,280.5,267.3,270.1z"/>
	<path class="st0" d="M376.3,212.2v79.5H368v-11c-7.5,8.3-18.8,13-31.5,13c-19.7,0-33.4-12.9-33.4-35v-46.6h8.3v46.3
		c0,17.7,10.8,27.5,26.3,27.5c11.7,0,23.1-5.6,30.3-15.7v-58.1H376.3z"/>
	<path class="st0" d="M484.5,212.2v119.7h-8.3V281c-7.7,8-18.1,12.7-30.8,12.7c-23.1,0-41.7-18.4-41.7-41.7s18.6-41.7,41.7-41.7
		c12.7,0,23.1,4.7,30.8,12.7v-10.8H484.5z M476.2,270.3v-36.5c-7.1-10.4-17.7-16-29.9-16c-19.1,0-33.9,15.5-33.9,34.3
		c0,18.8,14.8,34.1,33.9,34.1C458.4,286.1,469,280.7,476.2,270.3z"/>
	<path class="st0" d="M592.7,212.2v79.5h-8.3V281c-7.7,8-18.1,12.7-30.8,12.7c-23.1,0-41.7-18.4-41.7-41.7s18.6-41.9,41.7-41.9
		c12.7,0,23.1,4.7,30.8,12.9v-10.8H592.7z M584.3,270.3v-36.5c-7.1-10.4-17.7-15.8-29.9-15.8c-19.1,0-33.9,15.3-33.9,34.1
		c0,18.8,14.8,33.9,33.9,33.9C566.6,285.9,577.2,280.7,584.3,270.3z"/>
	<path class="st0" d="M700.3,212.2v79.5H692V281c-7.7,8-18.1,12.7-30.8,12.7c-23.1,0-41.7-18.4-41.7-41.7s18.6-41.9,41.7-41.9
		c12.7,0,23.1,4.7,30.8,12.9v-10.8H700.3z M692,270.3v-36.5c-7.1-10.4-17.7-15.8-29.9-15.8c-19.1,0-33.9,15.3-33.9,34.1
		c0,18.8,14.8,33.9,33.9,33.9C674.3,285.9,684.9,280.7,692,270.3z"/>
	<path class="st0" d="M805.2,244.9v46.8h-8.3v-46.4c0-17.7-10.8-27.3-26.3-27.3c-11.7,0-23.1,5.6-30.3,15.7v58.1H732v-79.5h8.3V223
		c7.5-8.3,18.8-12.9,31.5-12.9C791.5,210.1,805.2,223,805.2,244.9z"/>
</g>
</svg>
